<svg width="50" height="51" viewBox="0 0 50 51" fill="none" xmlns="http://www.w3.org/2000/svg">
<path d="M43.6094 28.0568C43.7669 27.0856 43.8453 26.1032 43.8438 25.1193C43.8438 20.1217 41.8585 15.3287 38.3246 11.7948C34.7907 8.2609 29.9977 6.27558 25 6.27558C24.0161 6.27405 23.0337 6.35244 22.0625 6.50996C19.8845 5.20528 17.3331 4.66565 14.8133 4.97676C12.2936 5.28787 9.94999 6.43189 8.15473 8.22715C6.35948 10.0224 5.21546 12.366 4.90434 14.8857C4.59323 17.4055 5.13286 19.9569 6.43754 22.135C6.26176 23.1203 6.16769 24.1185 6.15629 25.1193C6.15629 30.117 8.14161 34.91 11.6755 38.4439C15.2094 41.9778 20.0024 43.9631 25 43.9631C25.9839 43.9646 26.9663 43.8862 27.9375 43.7287C30.1155 45.0334 32.667 45.573 35.1868 45.2619C37.7065 44.9508 40.0501 43.8068 41.8453 42.0115C43.6406 40.2163 44.7846 37.8727 45.0957 35.3529C45.4068 32.8332 44.8672 30.2817 43.5625 28.1037L43.6094 28.0568ZM33.9532 33.6818C33.0712 34.9012 31.8558 35.8398 30.4532 36.385C28.7225 37.0641 26.8744 37.3934 25.0157 37.3537C22.8522 37.4443 20.6998 36.9988 18.75 36.0568C17.6133 35.4458 16.6385 34.5727 15.9063 33.51C15.2356 32.6021 14.8544 31.5129 14.8125 30.385C14.8109 30.0923 14.8697 29.8024 14.9853 29.5336C15.1009 29.2647 15.2709 29.0226 15.4844 28.8225C15.9577 28.4197 16.5669 28.2129 17.1875 28.2443C17.7062 28.2345 18.211 28.412 18.6094 28.7443C19.0455 29.1522 19.3822 29.6547 19.5938 30.2131C19.8649 30.8656 20.2109 31.4843 20.625 32.0568C21.0377 32.5854 21.5744 33.004 22.1875 33.2756C23.0203 33.6329 23.9228 33.7984 24.8282 33.76C26.1177 33.8224 27.395 33.484 28.4844 32.7912C28.9025 32.5463 29.2502 32.1975 29.4939 31.7786C29.7375 31.3598 29.8688 30.8851 29.875 30.4006C29.8885 30.0613 29.8301 29.723 29.7035 29.4079C29.577 29.0928 29.3851 28.8081 29.1407 28.5725C28.5843 28.0599 27.9153 27.6852 27.1875 27.4787C26.375 27.2131 25.2969 26.9475 23.9375 26.6506C22.3763 26.2871 20.8537 25.7743 19.3907 25.1193C18.2395 24.6475 17.2244 23.8956 16.4375 22.9318C15.6913 21.9385 15.3055 20.7206 15.3438 19.4787C15.3312 18.2162 15.7378 16.9852 16.5 15.9787C17.3706 14.8971 18.53 14.0844 19.8438 13.635C21.5049 13.0832 23.2505 12.8293 25 12.885C26.3689 12.8607 27.7335 13.0452 29.0469 13.4318C30.0776 13.7379 31.0458 14.2246 31.9063 14.8693C32.5834 15.3779 33.1475 16.0218 33.5625 16.76C33.9003 17.3563 34.083 18.0278 34.0938 18.7131C34.0918 19.0052 34.0313 19.2939 33.9159 19.5623C33.8005 19.8307 33.6326 20.0732 33.4219 20.2756C33.2093 20.506 32.9505 20.689 32.6625 20.8129C32.3744 20.9367 32.0635 20.9985 31.75 20.9943C31.2474 21.0334 30.7491 20.8767 30.3594 20.5568C29.9494 20.1618 29.6064 19.7027 29.3438 19.1975C28.9568 18.4011 28.3962 17.7016 27.7032 17.1506C26.7937 16.5836 25.7232 16.3311 24.6563 16.4318C23.5611 16.3857 22.4759 16.657 21.5313 17.2131C21.1882 17.3963 20.8984 17.6654 20.6903 17.994C20.4821 18.3226 20.3628 18.6996 20.3438 19.0881C20.3314 19.5126 20.4698 19.9278 20.7344 20.26C21.046 20.621 21.4291 20.9136 21.8594 21.1193C22.3177 21.3564 22.7995 21.5449 23.2969 21.6818C23.7969 21.8225 24.6094 22.0256 25.75 22.2912C27.1875 22.6037 28.4688 22.9475 29.6407 23.3225C30.6889 23.6418 31.6879 24.1045 32.6094 24.6975C33.4132 25.2058 34.0745 25.9102 34.5313 26.7443C34.9956 27.6958 35.2107 28.7495 35.1563 29.8068C35.1704 31.1925 34.7496 32.5478 33.9532 33.6818Z" fill="white" fill-opacity="0.5"/>
</svg>
