<svg width="50" height="51" viewBox="0 0 50 51" fill="none" xmlns="http://www.w3.org/2000/svg">
<path d="M45.9531 14.5881C45.7041 13.6631 45.2166 12.8198 44.5393 12.1425C43.862 11.4652 43.0186 10.9777 42.0937 10.7287C38.6875 9.80682 25 9.80682 25 9.80682C25 9.80682 11.3125 9.80682 7.9062 10.7287C6.98127 10.9777 6.13794 11.4652 5.46063 12.1425C4.78333 12.8198 4.29579 13.6631 4.04683 14.5881C3.41081 18.0619 3.10216 21.5878 3.12495 25.1193C3.10216 28.6508 3.41081 32.1767 4.04683 35.6506C4.29579 36.5755 4.78333 37.4188 5.46063 38.0961C6.13794 38.7735 6.98127 39.261 7.9062 39.5099C11.3125 40.4318 25 40.4318 25 40.4318C25 40.4318 38.6875 40.4318 42.0937 39.5099C43.0186 39.261 43.862 38.7735 44.5393 38.0961C45.2166 37.4188 45.7041 36.5755 45.9531 35.6506C46.5891 32.1767 46.8977 28.6508 46.875 25.1193C46.8977 21.5878 46.5891 18.0619 45.9531 14.5881ZM20.625 31.6818V18.5568L31.9843 25.1193L20.625 31.6818Z" fill="white" fill-opacity="0.5"/>
</svg>
